<svg width="129" height="319" viewBox="0 0 129 319" fill="none" xmlns="http://www.w3.org/2000/svg">
<path d="M77.4908 311.382C91.7926 313.551 111.088 316.048 125.251 315.722M125.251 315.722C126.883 315.685 122.391 303.803 122.139 303.271C116.632 291.59 109.829 280.924 102.676 270.193M125.251 315.722C51.0758 286.937 7.43717 217.609 17.3851 162.353C18.3711 156.877 19.4498 150.917 21.0497 145.109M21.0497 145.109C23.5975 135.86 27.4668 126.996 34.387 121.077C40.7739 115.615 51.4936 111.368 59.9682 114.763C75.799 121.104 76.1273 143.715 62.7706 152.197C51.0335 159.652 30.2502 156.367 21.0497 145.109ZM21.0497 145.109C20.8556 144.872 20.6667 144.631 20.4831 144.386C-23.8239 85.364 22.4995 16.9238 78.2307 2.81707" stroke="#D75E72" stroke-width="5" stroke-miterlimit="1.5" stroke-linecap="round" stroke-linejoin="round"/>
</svg>
